<svg xmlns="http://www.w3.org/2000/svg" shape-rendering="geometricPrecision" text-rendering="geometricPrecision" image-rendering="optimizeQuality" fill-rule="evenodd" clip-rule="evenodd" viewBox="0 0 244 511.71"><path fill="#2B2727" d="M147.27 58.65c0-10.66-4.36-20.36-11.4-27.39-7.03-7.03-16.72-11.4-27.38-11.4s-20.35 4.37-27.39 11.4c-7.03 7.03-11.39 16.73-11.39 27.39V330.1c-26.87 13.78-45.25 41.75-45.25 74.02 0 45.92 37.22 83.14 83.14 83.14 45.91 0 83.13-37.22 83.13-83.14 0-31.55-17.57-58.99-43.46-73.08V58.65zm40.83 35.94v-18H235a9 9 0 0 1 0 18h-46.9zm0 49.14v-18H235a9 9 0 0 1 0 18h-46.9zm0 49.14v-18H235a9 9 0 0 1 0 18h-46.9zm0 49.14v-18H235a9 9 0 0 1 0 18h-46.9zm0 49.14v-18H235a9 9 0 0 1 0 18h-46.9zm-20.97 23.34c28.97 19.28 48.06 52.22 48.06 89.63 0 59.42-48.17 107.59-107.59 107.59C48.17 511.71 0 463.54 0 404.12c0-38.17 19.88-71.69 49.84-90.79V58.65c0-16.14 6.6-30.81 17.22-41.43C77.69 6.59 92.35 0 108.49 0c16.13 0 30.8 6.59 41.43 17.22 10.62 10.62 17.21 25.29 17.21 41.43v255.84z"/><path fill="#FFA300" d="M124.52 345.35V185.5H90.67v159.85c-25.53 7.34-44.22 30.88-44.22 58.77 0 33.77 27.38 61.14 61.15 61.14 33.76 0 61.14-27.37 61.14-61.14 0-27.9-18.68-51.43-44.22-58.77z"/></svg>